<svg width="323" height="120" viewBox="0 0 323 120" fill="none" xmlns="http://www.w3.org/2000/svg">
<path d="M29.62 65.22C29.71 62.16 28.72 60.27 26.65 59.55C24.67 58.83 22.42 58.74 19.81 59.28C17.2 59.73 14.77 60.63 12.34 61.8C9.91 62.97 8.29 63.96 7.57 64.68C3.97 68.19 1.81 71.79 1 75.66C0.19 79.44 2.26 83.04 7.12 86.46C14.5 91.68 22.78 92.94 31.96 90.15C41.05 87.36 47.71 81.42 51.94 72.51C54.1 67.74 54.73 62.97 53.74 58.2C52.84 53.34 50.77 49.74 47.44 47.31C37.99 40.65 23.41 45.6 25.21 35.16C27.01 22.74 42.67 12.93 45.73 14.1C51.58 16.98 41.05 28.86 41.41 32.73C41.59 35.34 43.57 36.33 47.44 35.52C51.31 34.62 53.38 33.99 53.74 33.63C54.19 33.18 55.18 31.47 56.71 28.5C58.42 25.26 59.32 23.19 59.59 22.38C64.27 8.25 44.2 0.689999 29.62 9.06C25.39 11.4 21.7 14.73 18.55 18.96C15.4 23.19 13.24 27.42 11.98 31.74C10.72 35.97 10.63 39.93 11.62 43.62C12.7 47.13 15.31 49.38 19.45 50.37C27.46 52.53 41.05 48.75 40.69 63.24C40.42 68.28 37.45 72.42 35.29 75.3C32.59 78.54 29.26 80.88 25.21 82.32C23.23 83.13 20.71 83.31 17.56 82.95C14.59 82.59 12.61 81.69 11.71 80.25C10.36 78.18 10.45 76.02 11.8 73.77C13.15 71.52 14.59 70.08 16.12 69.27C17.65 68.46 19.81 67.74 22.6 66.93C25.48 66.12 27.82 65.49 29.62 65.22ZM88.3084 58.83C89.1184 61.17 88.6684 64.32 87.1384 68.19C85.6084 71.88 84.5284 74.67 83.5384 76.38C82.0984 78.99 75.9784 90.06 71.8384 84.93C70.1284 83.04 70.8484 79.44 73.8184 74.04C76.9684 68.37 79.5784 64.5 81.7384 62.25C83.8984 60.09 85.4284 57.39 88.3084 58.83ZM86.1484 51.45C85.1584 50.19 84.6184 49.47 84.5284 49.2C84.4384 48.93 82.4584 48.75 78.5884 48.75C75.9784 48.75 74.5384 48.93 74.0884 49.29C73.7284 49.65 73.1884 50.82 72.4684 52.89C70.5784 58.29 68.5984 62.52 66.4384 67.56C60.2284 81.33 53.0284 96.54 47.1784 110.31C46.7284 111.21 46.1884 112.47 45.5584 114.09C44.9284 115.71 45.1084 117.06 46.0984 118.05C46.8184 118.77 48.0784 119.31 49.8784 119.58C51.5884 119.94 52.7584 119.76 53.3884 119.04C55.8184 116.16 63.1084 96.81 67.1584 91.14C68.6884 91.32 70.1284 91.86 71.4784 92.85C72.8284 93.75 74.5384 94.11 76.5184 93.84C81.8284 93.3 85.5184 91.14 87.7684 87.27C90.1984 83.22 92.3584 79.08 94.2484 74.76C97.2184 68.1 105.318 52.62 94.9684 48.66C92.9884 47.94 91.3684 48.12 90.0184 49.2C88.6684 50.19 87.4984 51 86.1484 51.45ZM128.443 55.41L128.713 56.04C129.073 57.75 127.993 61.53 125.473 67.38C123.043 73.14 120.073 77.73 116.653 81.15C116.023 81.78 114.763 82.77 113.053 84.12C111.343 85.47 109.903 85.2 108.733 83.49C107.563 81.78 107.383 79.26 108.373 76.02C109.363 72.69 110.983 69.36 113.143 66.12C115.213 62.97 117.643 60.18 120.523 57.84C123.313 55.59 126.013 54.78 128.443 55.41ZM119.173 86.46C120.973 89.07 121.693 91.68 124.303 92.85C127.093 94.2 129.973 93.93 132.763 92.04C135.553 90.15 137.983 88.44 139.873 86.91C142.303 85.2 144.463 83.4 143.743 78.81C142.213 79.17 140.503 80.25 138.433 82.05C136.453 83.85 134.473 84.39 132.583 83.76C130.423 83.04 129.883 81.15 130.873 78.18C131.863 75.39 132.673 73.23 133.483 71.79C136.363 65.94 138.973 61.35 142.213 55.59C144.013 52.53 144.733 50.73 144.373 50.1C144.103 49.47 142.033 49.02 138.253 48.84C135.823 48.75 134.653 48.84 134.653 48.93C134.653 49.02 133.843 49.47 132.313 50.19C129.163 48.66 126.283 47.58 123.493 46.77C120.523 45.96 116.833 47.49 112.423 51.54C107.833 55.59 103.513 60.27 100.633 67.83C98.6528 72.6 97.9328 77.46 98.3828 82.5C98.8328 87.45 101.263 90.96 105.583 93.03C107.113 93.84 109.543 93.03 112.963 90.6C116.473 88.17 118.453 86.73 119.173 86.46ZM141.602 83.22C147.362 82.14 150.512 74.22 154.202 69C156.452 65.85 157.172 63.06 158.162 61.53C160.502 61.44 162.482 61.17 164.012 60.72C165.002 60.45 165.812 60.18 166.622 59.82C167.522 59.37 168.062 59.46 168.152 60.27C168.152 60.54 167.342 61.8 165.812 63.87C164.282 65.94 163.382 67.02 162.932 67.65C161.222 69.9 159.692 73.23 158.342 75.84C150.062 91.68 163.562 97.8 171.212 91.59C173.642 89.7 175.082 87.45 177.512 85.02C178.322 84.21 179.222 83.04 180.212 81.33C181.112 79.8 181.202 78.09 180.482 76.29C179.852 76.56 178.592 77.55 176.612 79.35C174.542 81.15 173.102 82.23 172.472 82.86C168.782 86.1 166.622 83.85 167.432 79.53C167.702 78 168.512 75.57 170.042 72.33C171.572 69.09 172.742 66.75 173.552 65.31C175.082 62.16 176.702 59.64 178.502 56.67C179.492 55.14 180.392 53.7 181.202 52.53C182.642 50.46 182.822 49.29 181.652 49.11C180.752 48.84 179.312 48.75 177.332 48.75C174.452 48.75 171.842 48.93 169.322 49.74C167.072 50.46 165.092 51.54 162.932 51.81C162.662 50.37 162.662 48.57 162.752 46.32C162.842 43.98 162.032 42.72 160.232 42.45C157.982 42.09 155.552 43.62 153.032 46.95C150.602 50.28 149.522 53.25 149.792 55.86C150.062 58.65 150.512 59.82 151.232 59.46C151.952 59.01 151.502 60.72 149.972 64.5C148.622 67.65 150.242 65.04 147.812 69.09C145.832 72.33 143.672 75.75 140.972 77.46C139.532 78.36 138.452 83.4 141.602 83.22ZM211.948 55.86C211.858 57.75 210.778 60.18 208.708 63.15C206.638 66.03 204.838 68.73 203.488 71.34C192.778 91.32 206.188 99.06 217.168 88.53C218.788 87 220.768 85.11 223.108 82.86C225.448 80.61 226.348 77.64 225.718 73.77C224.458 73.95 222.928 75.12 221.128 77.28C219.598 79.26 218.068 80.7 216.628 81.69C215.728 82.32 214.738 82.77 213.568 83.04C212.488 83.31 211.858 82.59 211.678 80.88C210.958 76.11 221.128 61.44 223.288 57.12C224.728 54.06 224.728 51.81 223.378 50.37C222.028 48.84 219.958 47.76 217.168 47.04C213.478 46.05 210.688 46.32 208.978 48.03C207.268 49.74 205.378 51.09 203.488 52.08C203.758 50.73 204.478 48.75 205.648 46.05C206.818 43.17 207.718 41.19 208.348 40.11C210.148 36.51 212.128 32.91 214.018 29.22C214.738 27.78 222.568 14.1 221.848 12.57C221.488 11.85 220.498 11.4 218.968 11.31C217.438 11.22 216.088 11.13 215.008 11.13C212.218 11.22 210.508 11.76 209.968 12.66C209.338 13.47 208.348 15.72 206.638 19.41L180.358 76.38C178.558 80.25 176.848 84.03 175.048 87.72C173.518 90.87 173.788 92.85 175.858 93.84C177.928 94.74 180.268 94.74 182.968 93.93C183.958 93.66 185.128 92.13 186.478 89.52C187.828 86.73 188.638 84.84 189.268 83.67C193.228 75.39 201.868 56.22 211.948 55.86ZM237.133 68.1C237.943 63.96 240.283 60.36 244.243 57.21C248.293 54.06 250.543 53.7 250.993 56.31C251.713 60.72 249.553 65.4 247.033 67.11C245.143 68.46 243.433 69.36 242.083 69.81C240.643 70.26 239.023 69.72 237.133 68.1ZM262.063 74.4C261.433 74.22 260.353 74.76 258.733 76.02C257.383 77.1 255.943 78.09 254.503 78.99C248.743 82.59 244.333 84.57 241.273 84.93C238.213 85.29 236.053 84.93 234.793 83.76C233.623 82.59 233.083 81.06 233.263 79.26C233.443 77.55 233.983 76.11 234.793 75.12C235.693 75.3 237.673 76.11 240.733 77.46C243.703 78.81 247.393 77.1 251.983 72.51C256.303 68.19 260.083 61.98 258.643 54.96C256.843 47.67 241.813 39.3 229.573 58.38C221.923 70.17 222.193 79.53 225.793 85.56C229.393 91.59 236.773 94.29 243.523 92.58C244.333 92.31 245.863 91.68 248.293 90.51C250.723 89.34 253.063 87.81 255.313 86.1C259.993 82.41 263.773 78.45 262.063 74.4ZM282.524 76.38C281.624 76.2 280.364 77.1 278.834 78.99C277.304 80.88 275.414 82.32 273.344 83.31C269.114 85.38 267.224 85.11 267.584 82.59C268.034 79.98 268.484 78 269.114 76.29C272.264 67.92 276.404 58.56 281.894 47.67C287.384 36.78 292.064 27.33 296.294 18.69C296.924 17.34 297.824 15.45 299.174 12.93C300.524 10.32 300.974 8.34 300.614 6.80999C299.444 6.72 297.824 6.80999 295.664 7.08C293.594 7.34999 291.974 7.44 290.804 7.70999C288.644 8.06999 288.644 8.88 287.924 10.41C284.774 18.33 281.084 26.34 276.854 35.07C272.624 43.71 268.844 51.81 265.334 59.46C261.464 68.28 251.204 84.84 259.574 91.77C262.364 94.11 264.974 94.83 267.404 94.02C269.924 93.21 272.264 91.86 274.424 89.97C276.314 88.26 278.474 86.37 280.724 83.94C282.974 81.51 283.604 78.99 282.524 76.38ZM286.432 54.69C287.692 55.77 288.682 56.22 289.492 55.95C290.122 55.68 291.382 55.77 293.362 56.04C293.092 56.85 292.642 58.2 291.832 60.09C291.022 61.89 290.392 63.33 289.942 64.32C288.142 68.55 286.162 73.32 284.092 78.81C282.022 84.3 282.832 88.26 286.342 90.78C290.482 93.66 294.712 93.66 299.122 90.78C303.532 87.81 307.222 85.11 310.372 82.32C312.712 80.43 313.972 78.54 314.062 76.65C314.152 74.76 313.792 73.95 313.072 74.13L305.602 79.98C304.072 81.15 302.452 82.14 300.382 82.77C298.402 83.4 296.512 83.04 294.712 81.69C294.262 81.06 294.622 79.35 295.612 76.56C296.692 73.77 297.952 70.8 299.302 67.65C300.742 64.5 302.002 61.62 303.352 59.1C304.612 56.49 305.242 55.23 305.332 55.14C308.572 51.9 318.652 57.03 314.602 47.13L310.102 46.32C311.092 39.3 322.612 26.16 321.892 22.02C319.822 20.67 317.032 20.94 314.152 21.3C312.352 21.57 311.272 21.84 310.912 22.2C310.642 22.65 310.102 23.55 309.292 24.99C305.962 31.11 303.442 36.33 300.562 42.45C299.482 44.97 299.302 46.95 296.782 47.31C295.792 47.58 294.532 47.58 292.732 47.67C290.932 47.76 289.672 48.03 289.042 48.3C287.512 49.02 286.432 52.53 286.432 54.69Z" fill="#05392C"/>
</svg>
