<svg width="761" height="128" viewBox="0 0 761 128" fill="none" xmlns="http://www.w3.org/2000/svg">
<rect x="357" width="404" height="128" fill="#372B06"/>
<path d="M50.04 39.49C44.46 34.36 36.36 31.66 29.16 31.66C17.28 31.66 4.5 37.51 4.5 51.64C4.5 63.16 12.69 67.3 20.79 69.91C29.16 72.61 34.02 74.14 34.02 79C34.02 84.13 29.88 85.93 25.2 85.93C20.16 85.93 14.49 83.05 11.43 79.18L1.35 89.44C6.93 95.29 16.11 98.62 25.2 98.62C37.8 98.62 49.59 92.05 49.59 77.38C49.59 64.69 38.43 61 29.79 58.21C23.76 56.32 19.98 54.97 19.98 50.74C19.98 45.7 24.93 44.35 28.89 44.35C32.85 44.35 37.62 46.51 40.23 49.84L50.04 39.49ZM123.914 88.18L113.204 78.1C110.504 81.88 105.734 84.58 99.7038 84.58C89.0838 84.58 81.6138 76.66 81.6138 65.05C81.6138 53.8 89.2638 45.52 99.9738 45.52C104.834 45.52 109.964 47.41 112.844 51.37L123.284 40.93C117.974 34.81 108.344 31.57 99.4338 31.57C79.9938 31.57 64.8738 44.62 64.8738 65.05C64.8738 85.03 79.5438 98.71 99.1638 98.71C109.874 98.71 118.334 94.66 123.914 88.18ZM203.975 64.87C203.975 44.44 189.215 31.57 169.235 31.57C149.345 31.57 134.585 44.44 134.585 64.87C134.585 85.03 149.345 98.71 169.235 98.71C189.215 98.71 203.975 85.03 203.975 64.87ZM187.505 64.87C187.505 76.39 179.945 84.67 169.235 84.67C158.525 84.67 151.055 76.39 151.055 64.87C151.055 53.71 158.435 45.43 169.235 45.43C180.035 45.43 187.505 53.71 187.505 64.87ZM274.318 97L257.668 69.73C265.858 67.21 270.898 61.09 270.898 52.54C270.898 37.96 258.748 33.28 246.508 33.28H222.208V97H237.328V71.71H242.548L256.318 97H274.318ZM255.688 52.81C255.688 59.29 249.478 60.55 244.528 60.55H237.238V45.7H245.428C250.018 45.7 255.688 46.87 255.688 52.81ZM334.446 97V83.86H304.836V70.63H331.296V58.3H304.836V46.33H332.826V33.28H289.986V97H334.446Z" fill="#372B06"/>
<path d="M433.034 78.46C433.034 70.09 427.274 64.87 419.984 63.61V63.43C426.194 61.36 430.424 56.68 430.424 49.66C430.424 36.79 418.634 33.28 408.734 33.28H383.354V97H408.734C420.884 97 433.034 92.32 433.034 78.46ZM415.574 51.73C415.574 56.23 412.244 58.66 406.484 58.66H398.204V45.52H405.764C412.244 45.52 415.574 47.41 415.574 51.73ZM417.644 77.02C417.644 83.23 411.704 84.58 406.844 84.58H398.204V70H406.754C413.324 70 417.644 71.71 417.644 77.02ZM517.727 64.87C517.727 44.44 502.967 31.57 482.987 31.57C463.097 31.57 448.337 44.44 448.337 64.87C448.337 85.03 463.097 98.71 482.987 98.71C502.967 98.71 517.727 85.03 517.727 64.87ZM501.257 64.87C501.257 76.39 493.697 84.67 482.987 84.67C472.277 84.67 464.807 76.39 464.807 64.87C464.807 53.71 472.187 45.43 482.987 45.43C493.787 45.43 501.257 53.71 501.257 64.87ZM594.678 97L568.218 33.28H553.278L526.548 97H543.288L547.968 84.49H572.628L577.578 97H594.678ZM568.398 72.16H552.378L560.478 50.29L568.398 72.16ZM660.154 97L643.504 69.73C651.694 67.21 656.734 61.09 656.734 52.54C656.734 37.96 644.584 33.28 632.344 33.28H608.044V97H623.164V71.71H628.384L642.154 97H660.154ZM641.524 52.81C641.524 59.29 635.314 60.55 630.364 60.55H623.074V45.7H631.264C635.854 45.7 641.524 46.87 641.524 52.81ZM735.312 64.96C735.312 40.84 716.952 33.28 698.862 33.28H675.822V97H699.582C717.132 97 735.312 87.37 735.312 64.96ZM719.292 64.96C719.292 79.18 709.122 83.68 698.142 83.68H690.852V46.42H698.502C709.122 46.42 719.292 50.65 719.292 64.96Z" fill="#F9EDC8"/>
</svg>
